<?xml version="1.0" standalone="no"?>
<!DOCTYPE svg PUBLIC "-//W3C//DTD SVG 20010904//EN"
 "http://www.w3.org/TR/2001/REC-SVG-20010904/DTD/svg10.dtd">
<svg version="1.0" xmlns="http://www.w3.org/2000/svg"
 width="1206.000000pt" height="1096.000000pt" viewBox="0 0 1206.000000 1096.000000"
 preserveAspectRatio="xMidYMid meet">

<g transform="translate(0.000000,1096.000000) scale(0.100000,-0.100000)"
fill="#000000" stroke="none">
<path d="M3628 9495 c-357 -43 -664 -187 -916 -429 -291 -279 -448 -607 -487
-1018 -13 -135 -13 -171 0 -303 23 -242 58 -373 153 -575 39 -84 137 -232 212
-323 221 -264 551 -464 878 -530 83 -17 102 -29 102 -64 0 -31 24 -125 56
-223 38 -114 136 -304 211 -408 151 -211 386 -410 598 -507 33 -15 74 -33 90
-41 45 -21 179 -62 280 -87 l90 -21 1928 -3 c1670 -3 1927 -5 1927 -18 0 -21
-36 -110 -72 -180 -129 -250 -352 -431 -643 -522 l-90 -28 -2860 -3 c-1573 -1
-2867 -4 -2875 -7 -9 -4 295 -315 920 -940 l935 -935 2525 0 c2748 0 2656 -2
2885 55 453 114 846 438 1039 856 56 122 63 141 84 214 59 201 79 390 62 598
-6 72 -15 148 -20 167 -5 19 -16 67 -26 105 -37 148 -124 342 -217 480 -112
167 -299 348 -475 459 -150 94 -378 182 -552 214 -43 7 -45 9 -52 52 -55 306
-212 605 -436 829 -224 223 -508 378 -802 435 -181 35 -229 36 -2102 36 -1480
0 -1858 3 -1858 13 0 21 37 130 63 187 45 97 127 213 216 301 134 134 263 210
464 271 l72 22 2850 3 c1568 2 2857 5 2865 8 9 4 -295 315 -920 940 l-935 935
-2530 -1 c-2000 -1 -2552 -4 -2637 -14z m5329 -917 c211 -211 383 -386 383
-390 0 -4 -993 -9 -2207 -10 l-2208 -3 -104 -23 c-142 -32 -267 -74 -386 -132
-100 -48 -254 -145 -310 -195 -16 -15 -50 -44 -74 -64 -112 -92 -282 -325
-362 -498 -57 -122 -119 -323 -119 -384 0 -24 -21 -24 -91 0 -319 111 -562
355 -664 667 -110 336 -50 717 155 994 127 172 336 318 535 375 154 44 77 43
2635 44 l2435 1 382 -382z m-1022 -2312 c318 -58 591 -256 740 -539 53 -102
90 -206 78 -218 -6 -6 -752 -8 -1889 -6 -2009 4 -1903 1 -2054 49 -259 84
-486 278 -615 528 -27 52 -74 188 -67 194 3 3 843 6 1866 6 1575 0 1873 -2
1941 -14z m1456 -1356 c549 -175 860 -773 680 -1308 -88 -259 -236 -438 -494
-596 -56 -34 -213 -88 -311 -107 -98 -18 -176 -19 -2541 -19 l-2440 0 -382
382 c-211 211 -383 386 -383 390 0 4 1002 9 2228 11 1737 2 2237 5 2272 15 25
7 77 20 115 29 494 112 932 503 1108 986 24 67 50 148 57 180 7 31 16 57 20
57 4 0 36 -9 71 -20z"/>
</g>
</svg>
